<svg width="15" height="15" viewBox="0 0 15 15" fill="none" xmlns="http://www.w3.org/2000/svg">
<g clip-path="url(#clip0_2759_10301)">
<path d="M1.25098 7.49911C1.25098 8.31975 1.41261 9.13236 1.72666 9.89054C2.04071 10.6487 2.50101 11.3376 3.0813 11.9179C3.66158 12.4982 4.35048 12.9585 5.10865 13.2725C5.86683 13.5866 6.67944 13.7482 7.50008 13.7482C8.32073 13.7482 9.13334 13.5866 9.89151 13.2725C10.6497 12.9585 11.3386 12.4982 11.9189 11.9179C12.4992 11.3376 12.9595 10.6487 13.2735 9.89054C13.5876 9.13236 13.7492 8.31975 13.7492 7.49911C13.7492 6.67846 13.5876 5.86585 13.2735 5.10768C12.9595 4.3495 12.4992 3.6606 11.9189 3.08032C11.3386 2.50004 10.6497 2.03973 9.89151 1.72569C9.13334 1.41164 8.32073 1.25 7.50008 1.25C6.67944 1.25 5.86683 1.41164 5.10865 1.72569C4.35048 2.03973 3.66158 2.50004 3.0813 3.08032C2.50101 3.6606 2.04071 4.3495 1.72666 5.10768C1.41261 5.86585 1.25098 6.67846 1.25098 7.49911Z" stroke="#6AC265" stroke-opacity="0.96" stroke-width="1.13074" stroke-linecap="round" stroke-linejoin="round"/>
<path d="M5.41699 7.49807L6.80568 8.88676L9.58306 6.10938" stroke="#6AC265" stroke-opacity="0.96" stroke-width="1.13074" stroke-linecap="round" stroke-linejoin="round"/>
</g>
<defs>
<clipPath id="clip0_2759_10301">
<rect width="15" height="15" fill="white"/>
</clipPath>
</defs>
</svg>
