<svg width="23" height="23" viewBox="0 0 23 23" fill="none" xmlns="http://www.w3.org/2000/svg">
<g opacity="0.73">
<path d="M13.8214 1.84375H8.29173C7.78274 1.84375 7.37012 2.25637 7.37012 2.76537V4.6086C7.37012 5.11759 7.78274 5.53021 8.29173 5.53021H13.8214C14.3304 5.53021 14.743 5.11759 14.743 4.6086V2.76537C14.743 2.25637 14.3304 1.84375 13.8214 1.84375Z" stroke="#1D4D1F" stroke-width="1.60392" stroke-linecap="round" stroke-linejoin="round"/>
<path d="M14.7449 3.6875H16.5882C17.077 3.6875 17.5459 3.8817 17.8915 4.22737C18.2372 4.57304 18.4314 5.04188 18.4314 5.53073V18.4333C18.4314 18.9222 18.2372 19.391 17.8915 19.7367C17.5459 20.0824 17.077 20.2766 16.5882 20.2766H5.52878C5.03992 20.2766 4.57109 20.0824 4.22542 19.7367C3.87974 19.391 3.68555 18.9222 3.68555 18.4333V5.53073C3.68555 5.04188 3.87974 4.57304 4.22542 4.22737C4.57109 3.8817 5.03992 3.6875 5.52878 3.6875H7.37201" stroke="#1D4D1F" stroke-width="1.60392" stroke-linecap="round" stroke-linejoin="round"/>
<path d="M8.29272 12.9018L10.136 14.7451L13.8224 11.0586" stroke="#1D4D1F" stroke-width="1.60392" stroke-linecap="round" stroke-linejoin="round"/>
</g>
</svg>
