<svg width="15" height="15" viewBox="0 0 15 15" fill="none" xmlns="http://www.w3.org/2000/svg">
<path fill-rule="evenodd" clip-rule="evenodd" d="M4.375 0.773438C4.63388 0.773438 4.84375 0.983306 4.84375 1.24219V1.71889C5.25752 1.71093 5.71337 1.71093 6.21474 1.71094H8.78525C9.28662 1.71093 9.7425 1.71093 10.1562 1.71889V1.24219C10.1562 0.983306 10.3661 0.773438 10.625 0.773438C10.8839 0.773438 11.0938 0.983306 11.0938 1.24219V1.75912C11.2562 1.77151 11.4101 1.78708 11.5556 1.80664C12.2884 1.90516 12.8815 2.11274 13.3493 2.58046C13.8169 3.04819 14.0245 3.64128 14.1231 4.37405C14.1545 4.60823 14.1756 4.86381 14.1898 5.14223C14.2086 5.19285 14.2188 5.24757 14.2188 5.30469C14.2188 5.34801 14.2129 5.38996 14.2019 5.42979C14.2188 5.931 14.2188 6.50019 14.2188 7.14444V8.46494C14.2188 9.61356 14.2188 10.5233 14.1231 11.2353C14.0245 11.9681 13.8169 12.5612 13.3493 13.0289C12.8815 13.4966 12.2884 13.7042 11.5556 13.8028C10.8436 13.8984 9.93388 13.8984 8.78525 13.8984H6.21474C5.06614 13.8984 4.15637 13.8984 3.44436 13.8028C2.7116 13.7042 2.11851 13.4966 1.65078 13.0289C1.18305 12.5612 0.975475 11.9681 0.876963 11.2353C0.781231 10.5233 0.781238 9.61356 0.78125 8.46494V7.14444C0.781244 6.50012 0.781238 5.931 0.798132 5.42979C0.787132 5.38997 0.78125 5.34801 0.78125 5.30469C0.78125 5.24757 0.791463 5.19284 0.810169 5.14222C0.824344 4.8638 0.845475 4.60823 0.876963 4.37405C0.975475 3.64129 1.18305 3.04819 1.65078 2.58046C2.11851 2.11274 2.7116 1.90516 3.44436 1.80664C3.58994 1.78708 3.74379 1.77151 3.90625 1.75912V1.24219C3.90625 0.983306 4.11612 0.773438 4.375 0.773438ZM1.72693 5.77344C1.71895 6.18138 1.71875 6.64594 1.71875 7.17969V8.42969C1.71875 9.62144 1.71974 10.4681 1.8061 11.1104C1.89064 11.7392 2.04918 12.1015 2.31369 12.366C2.57819 12.6305 2.94048 12.7891 3.56928 12.8736C4.21157 12.9599 5.05824 12.9609 6.25 12.9609H8.75C9.94175 12.9609 10.7884 12.9599 11.4307 12.8736C12.0595 12.7891 12.4218 12.6305 12.6863 12.366C12.9508 12.1015 13.1094 11.7392 13.1939 11.1104C13.2803 10.4681 13.2812 9.62144 13.2812 8.42969V7.17969C13.2812 6.64594 13.2811 6.18138 13.2731 5.77344H1.72693ZM13.2302 4.83594H1.7698C1.77981 4.71757 1.79178 4.60546 1.8061 4.49897C1.89064 3.87016 2.04918 3.50788 2.31369 3.24338C2.57819 2.97887 2.94048 2.82032 3.56928 2.73579C4.21157 2.64943 5.05824 2.64844 6.25 2.64844H8.75C9.94175 2.64844 10.7884 2.64943 11.4307 2.73579C12.0595 2.82032 12.4218 2.97887 12.6863 3.24338C12.9508 3.50788 13.1094 3.87016 13.1939 4.49897C13.2082 4.60546 13.2202 4.71757 13.2302 4.83594Z" fill="#5A7665"/>
</svg>
