<svg width="18" height="18" viewBox="0 0 18 18" fill="none" xmlns="http://www.w3.org/2000/svg">
<path d="M8.99902 5.87695V9.00339L10.5622 10.5666" stroke="#012C12" stroke-width="1.2" stroke-linecap="round" stroke-linejoin="round"/>
<path d="M2.00342 8.22006C2.17857 6.50057 2.98063 4.90574 4.25659 3.73985C5.53254 2.57397 7.19307 1.91864 8.92135 1.8989C10.6496 1.87916 12.3247 2.49639 13.6269 3.63282C14.9292 4.76926 15.7675 6.34536 15.9819 8.0604C16.1962 9.77545 15.7717 11.5094 14.7893 12.9314C13.8068 14.3534 12.3352 15.364 10.6553 15.7703C8.97531 16.1766 7.20457 15.9502 5.68089 15.1342C4.15721 14.3183 2.98725 12.97 2.39422 11.3465M1.24025 14.5783L1.781 11.9836C1.90714 11.3784 2.47248 10.968 3.08703 11.0357L5.91146 11.3465" stroke="#012C12" stroke-linecap="round" stroke-linejoin="round"/>
</svg>
