<svg width="28" height="28" viewBox="0 0 28 28" fill="none" xmlns="http://www.w3.org/2000/svg">
<path d="M2.33496 14.0009C2.33496 15.5328 2.63668 17.0497 3.22291 18.4649C3.80913 19.8802 4.66836 21.1661 5.75156 22.2493C6.83476 23.3325 8.1207 24.1918 9.53596 24.778C10.9512 25.3642 12.4681 25.6659 14 25.6659C15.5318 25.6659 17.0487 25.3642 18.464 24.778C19.8792 24.1918 21.1652 23.3325 22.2484 22.2493C23.3316 21.1661 24.1908 19.8802 24.777 18.4649C25.3632 17.0497 25.665 15.5328 25.665 14.0009C25.665 12.4691 25.3632 10.9522 24.777 9.53694C24.1908 8.12167 23.3316 6.83573 22.2484 5.75254C21.1652 4.66934 19.8792 3.8101 18.464 3.22388C17.0487 2.63766 15.5318 2.33594 14 2.33594C12.4681 2.33594 10.9512 2.63766 9.53596 3.22388C8.1207 3.8101 6.83476 4.66934 5.75156 5.75254C4.66836 6.83573 3.80913 8.12167 3.22291 9.53694C2.63668 10.9522 2.33496 12.4691 2.33496 14.0009Z" stroke="#019A20" stroke-width="1.94181" stroke-linecap="round" stroke-linejoin="round"/>
<path d="M10.1116 13.9985L12.7038 16.5907L17.8882 11.4062" stroke="#019A20" stroke-width="1.94181" stroke-linecap="round" stroke-linejoin="round"/>
</svg>
