<svg width="15" height="15" viewBox="0 0 15 15" fill="none" xmlns="http://www.w3.org/2000/svg">
<path d="M10.751 5.34028C10.8044 5.39366 10.8468 5.45704 10.8757 5.5268C10.9046 5.59657 10.9195 5.67135 10.9195 5.74687C10.9195 5.8224 10.9046 5.89718 10.8757 5.96695C10.8468 6.03671 10.8044 6.10009 10.751 6.15347L6.72816 10.1763C6.67478 10.2297 6.6114 10.2721 6.54164 10.301C6.47187 10.3299 6.39709 10.3448 6.32157 10.3448C6.24604 10.3448 6.17126 10.3299 6.10149 10.301C6.03173 10.2721 5.96835 10.2297 5.91497 10.1763L4.19091 8.45222C4.08308 8.34438 4.0225 8.19813 4.0225 8.04562C4.0225 7.89312 4.08308 7.74687 4.19091 7.63903C4.29875 7.5312 4.445 7.47062 4.5975 7.47062C4.75 7.47062 4.89626 7.5312 5.00409 7.63903L6.32157 8.95722L9.93779 5.34028C9.99116 5.28685 10.0545 5.24446 10.1243 5.21554C10.1941 5.18662 10.2689 5.17174 10.3444 5.17174C10.4199 5.17174 10.4947 5.18662 10.5644 5.21554C10.6342 5.24446 10.6976 5.28685 10.751 5.34028ZM14.9419 7.47094C14.9419 8.94855 14.5037 10.393 13.6828 11.6216C12.8619 12.8502 11.6951 13.8077 10.3299 14.3732C8.96481 14.9386 7.46265 15.0866 6.01343 14.7983C4.56421 14.5101 3.23302 13.7985 2.18819 12.7537C1.14336 11.7089 0.431823 10.3777 0.143555 8.92844C-0.144712 7.47923 0.00323704 5.97707 0.568695 4.61193C1.13415 3.2468 2.09172 2.08 3.32031 1.25908C4.5489 0.438163 5.99333 0 7.47094 0C9.45171 0.00209173 11.3508 0.789878 12.7514 2.1905C14.152 3.59112 14.9398 5.49016 14.9419 7.47094ZM13.7925 7.47094C13.7925 6.22065 13.4218 4.99844 12.7271 3.95887C12.0325 2.91929 11.0452 2.10904 9.8901 1.63058C8.73498 1.15211 7.46393 1.02692 6.23767 1.27084C5.0114 1.51476 3.88501 2.11683 3.00092 3.00092C2.11683 3.885 1.51476 5.0114 1.27085 6.23766C1.02693 7.46392 1.15211 8.73498 1.63058 9.89009C2.10904 11.0452 2.91929 12.0325 3.95887 12.7271C4.99844 13.4217 6.22065 13.7925 7.47094 13.7925C9.14694 13.7906 10.7537 13.124 11.9389 11.9389C13.124 10.7537 13.7906 9.14694 13.7925 7.47094Z" fill="#012C12"/>
</svg>
