<svg width="15" height="15" viewBox="0 0 15 15" fill="none" xmlns="http://www.w3.org/2000/svg">
<path d="M7.24316 0.0498047C11.2158 0.0498047 14.4365 3.27049 14.4365 7.24316C14.4365 11.2158 11.2158 14.4365 7.24316 14.4365H0.572266C0.361244 14.4365 0.170639 14.3092 0.0898438 14.1143C0.0090898 13.9193 0.0539195 13.6951 0.203125 13.5459L1.76855 11.9795L1.80078 11.9473L1.77148 11.9121C0.698773 10.6559 0.0498047 9.02491 0.0498047 7.24316C0.0498047 3.27049 3.27051 0.0498047 7.24316 0.0498047ZM7.24316 1.09375C3.8469 1.09375 1.09375 3.84688 1.09375 7.24316C1.09375 8.9414 1.78113 10.4783 2.89453 11.5918C2.99238 11.6896 3.04785 11.8225 3.04785 11.9609C3.04774 12.0992 2.99226 12.2314 2.89453 12.3291L1.91699 13.3076L1.83203 13.3926H7.24316C10.6395 13.3926 13.3926 10.6395 13.3926 7.24316C13.3926 3.84688 10.6395 1.09375 7.24316 1.09375Z" fill="#012C12" stroke="white" stroke-width="0.1"/>
</svg>
