<svg width="19" height="19" viewBox="0 0 19 19" fill="none" xmlns="http://www.w3.org/2000/svg">
<path d="M5.36328 7.40651C5.36328 6.86461 5.57855 6.34491 5.96173 5.96173C6.34491 5.57855 6.86461 5.36328 7.40651 5.36328H14.0456C14.314 5.36328 14.5797 5.41613 14.8276 5.51881C15.0754 5.62149 15.3007 5.772 15.4904 5.96173C15.6802 6.15146 15.8307 6.3767 15.9333 6.6246C16.036 6.87249 16.0889 7.13819 16.0889 7.40651V14.0456C16.0889 14.314 16.036 14.5797 15.9333 14.8276C15.8307 15.0754 15.6802 15.3007 15.4904 15.4904C15.3007 15.6802 15.0754 15.8307 14.8276 15.9333C14.5797 16.036 14.314 16.0889 14.0456 16.0889H7.40651C7.13819 16.0889 6.87249 16.036 6.6246 15.9333C6.3767 15.8307 6.15146 15.6802 5.96173 15.4904C5.772 15.3007 5.62149 15.0754 5.51881 14.8276C5.41613 14.5797 5.36328 14.314 5.36328 14.0456V7.40651Z" stroke="#012C12" stroke-width="0.919336" stroke-linecap="round" stroke-linejoin="round"/>
<path d="M3.07413 12.8229C2.8392 12.689 2.64379 12.4954 2.50765 12.2617C2.37152 12.0281 2.29948 11.7626 2.29883 11.4922V3.83105C2.29883 2.98833 2.98833 2.29883 3.83105 2.29883H11.4922C12.0668 2.29883 12.3793 2.59378 12.6414 3.06494" stroke="#012C12" stroke-width="0.919336" stroke-linecap="round" stroke-linejoin="round"/>
</svg>
