<svg width="13" height="12" viewBox="0 0 13 12" fill="none" xmlns="http://www.w3.org/2000/svg">
<path d="M1.54883 0.0498047H7.74414C8.57162 0.0498047 9.24314 0.721353 9.24316 1.54883V3.14746H10.8418C11.6693 3.14746 12.3408 3.81905 12.3408 4.64648V10.417C12.3408 11.2445 11.6693 11.916 10.8418 11.916H4.64648C3.81906 11.916 3.14749 11.2444 3.14746 10.417V8.81836H1.54883C0.721398 8.81834 0.0498769 8.14675 0.0498047 7.31934V1.54883C0.0498261 0.721367 0.721367 0.049826 1.54883 0.0498047ZM9.24316 7.31934C9.24309 8.14677 8.57159 8.81836 7.74414 8.81836H4.08008V10.417C4.08011 10.7298 4.33369 10.9833 4.64648 10.9834H10.8418C10.9918 10.9834 11.1369 10.9236 11.2432 10.8174C11.3492 10.7112 11.4082 10.5668 11.4082 10.417V4.64648C11.4082 4.49666 11.3492 4.35228 11.2432 4.24609C11.1369 4.13986 10.9918 4.08008 10.8418 4.08008H9.24316V7.31934ZM1.54883 0.982422C1.23599 0.982443 0.982443 1.23599 0.982422 1.54883V7.31934C0.982494 7.63213 1.23602 7.88572 1.54883 7.88574H7.74414C7.89406 7.88574 8.03831 7.82586 8.14453 7.71973C8.25073 7.61353 8.31051 7.46929 8.31055 7.31934V1.54883C8.31054 1.39884 8.25076 1.25466 8.14453 1.14844C8.03831 1.04227 7.89409 0.982422 7.74414 0.982422H1.54883Z" fill="#7A9183" stroke="white" stroke-width="0.1"/>
</svg>
