<svg width="17" height="17" viewBox="0 0 17 17" fill="none" xmlns="http://www.w3.org/2000/svg">
<path d="M7.015 14.579C6.7405 14.5485 6.466 14.4875 6.1915 14.4265C5.8255 13.481 5.5205 12.2915 5.368 10.98H5.795C6.1305 10.98 6.405 10.7055 6.405 10.37C6.405 10.0345 6.1305 9.76 5.795 9.76H5.246C5.2155 9.15 5.185 8.54 5.185 7.93C5.185 7.32 5.2155 6.71 5.246 6.1H7.32C7.6555 6.1 7.93 5.8255 7.93 5.49C7.93 5.1545 7.6555 4.88 7.32 4.88H5.368C5.551 3.5685 5.8255 2.4095 6.1915 1.4335C6.771 1.3115 7.3505 1.22 7.93 1.22C8.5095 1.22 9.089 1.3115 9.638 1.4335C9.943 2.196 10.4615 3.721 10.675 5.551C10.7055 5.856 10.98 6.0695 11.285 6.0695H14.3655C14.457 6.3745 14.518 6.71 14.579 7.015C14.6095 7.3505 14.9145 7.5945 15.25 7.5335C15.5855 7.503 15.8295 7.198 15.7685 6.8625C15.4025 3.782 13.176 1.281 10.3395 0.366C10.309 0.366 10.2785 0.3355 10.248 0.3355C9.516 0.122 8.723 0 7.93 0C3.5685 0 0 3.5685 0 7.93C0 11.4375 2.318 14.4875 5.5815 15.494C5.612 15.494 5.612 15.494 5.6425 15.5245C6.039 15.6465 6.466 15.738 6.893 15.799C6.9235 15.799 6.954 15.799 6.9845 15.799C7.2895 15.799 7.5335 15.5855 7.5945 15.2805C7.5945 14.945 7.3505 14.64 7.015 14.579ZM13.908 4.88H11.834C11.712 3.9345 11.468 2.9585 11.163 2.074C12.322 2.7145 13.298 3.6905 13.908 4.88ZM4.026 9.76H1.464C1.3115 9.1805 1.22 8.5705 1.22 7.93C1.22 7.2895 1.3115 6.6795 1.464 6.1H4.026C3.9955 6.71 3.965 7.32 3.965 7.93C3.965 8.54 3.9955 9.15 4.026 9.76ZM4.7275 2.0435C4.4835 2.8975 4.27 3.8735 4.148 4.88H1.952C2.562 3.6905 3.538 2.684 4.7275 2.0435ZM1.952 10.98H4.148C4.27 12.017 4.4835 12.9625 4.7275 13.8165C3.538 13.176 2.5925 12.1695 1.952 10.98ZM16.287 15.433L15.006 14.152C15.5245 13.42 15.86 12.5355 15.86 11.59C15.86 9.2415 13.9385 7.32 11.59 7.32C9.2415 7.32 7.32 9.2415 7.32 11.59C7.32 13.9385 9.2415 15.86 11.59 15.86C12.5355 15.86 13.42 15.5245 14.152 15.006L15.433 16.287C15.555 16.409 15.7075 16.47 15.86 16.47C16.0125 16.47 16.165 16.409 16.287 16.287C16.531 16.043 16.531 15.677 16.287 15.433ZM8.54 11.59C8.54 9.9125 9.9125 8.54 11.59 8.54C13.2675 8.54 14.64 9.9125 14.64 11.59C14.64 13.2675 13.2675 14.64 11.59 14.64C9.9125 14.64 8.54 13.2675 8.54 11.59ZM9.15 4.88C9.4855 4.88 9.76 5.1545 9.76 5.49C9.76 5.8255 9.4855 6.1 9.15 6.1C8.8145 6.1 8.54 5.8255 8.54 5.49C8.54 5.1545 8.8145 4.88 9.15 4.88Z" fill="#012C12"/>
</svg>
