<svg width="12" height="12" viewBox="0 0 12 12" fill="none" xmlns="http://www.w3.org/2000/svg">
<path d="M5.9668 11.916C4.95343 11.916 4.132 11.0944 4.13184 10.0811V8.1084H2.17676C0.874186 8.1084 -0.12255 6.94756 0.0751953 5.66016L0.661133 1.85254C0.820641 0.815682 1.71273 0.0499781 2.76172 0.0498047H10.0645C10.938 0.0498047 11.6465 0.758262 11.6465 1.63184V5.43945C11.6462 6.31283 10.9379 7.02051 10.0645 7.02051H8.75391L8.74023 7.05078L6.82617 11.3574C6.67503 11.6969 6.33849 11.916 5.9668 11.916ZM10.0645 6.0332C10.3923 6.0332 10.658 5.76726 10.6582 5.43945V1.63184C10.6582 1.30383 10.3925 1.03809 10.0645 1.03809H8.92676V6.0332H10.0645ZM5.9502 10.8955L7.83789 6.64941C7.86387 6.59097 7.89537 6.53588 7.93066 6.48438L7.93945 6.47168V1.03809H2.76172C2.20026 1.03826 1.72307 1.44797 1.6377 2.00293L1.05176 5.80957C0.945714 6.49879 1.47946 7.12109 2.17676 7.12109H4.08203C4.65494 7.12128 5.11897 7.5853 5.11914 8.1582V10.0811C5.1193 10.5267 5.46421 10.8922 5.90137 10.9258L5.93652 10.9277L5.9502 10.8955Z" fill="#7A9183" stroke="#EFF4EF" stroke-width="0.1"/>
</svg>
