<svg width="28" height="28" viewBox="0 0 28 28" fill="none" xmlns="http://www.w3.org/2000/svg">
<g opacity="0.73" clip-path="url(#clip0_3250_3425)">
<path d="M17.5807 3.2832V5.0332C17.5807 6.68311 17.5807 7.50808 18.0932 8.02064C18.6058 8.5332 19.4308 8.5332 21.0807 8.5332H22.8307" stroke="#246027" stroke-width="1.70338" stroke-linecap="round" stroke-linejoin="round"/>
<path d="M17.5807 3.2832V5.0332C17.5807 6.68311 17.5807 7.50808 18.0932 8.02064C18.6058 8.5332 19.4308 8.5332 21.0807 8.5332H22.8307" stroke="black" stroke-opacity="0.2" stroke-width="1.70338" stroke-linecap="round" stroke-linejoin="round"/>
<path d="M23.4133 19.0345V9.50101C23.4133 9.02413 23.4133 8.78569 23.3245 8.57129C23.2357 8.35689 23.067 8.18829 22.7298 7.85108L18.2634 3.38459C17.9262 3.04739 17.7575 2.87879 17.5432 2.78998C17.3287 2.70117 17.0903 2.70117 16.6134 2.70117H11.7466C8.44675 2.70117 6.79684 2.70117 5.77171 3.7263C4.74658 4.75143 4.74658 6.40134 4.74658 9.70117V19.0345C4.74658 22.3343 4.74658 23.9842 5.77171 25.0094C6.79684 26.0345 8.44675 26.0345 11.7466 26.0345H16.4132" stroke="#246027" stroke-width="1.70338" stroke-linecap="round" stroke-linejoin="round"/>
<path d="M23.4133 19.0345V9.50101C23.4133 9.02413 23.4133 8.78569 23.3245 8.57129C23.2357 8.35689 23.067 8.18829 22.7298 7.85108L18.2634 3.38459C17.9262 3.04739 17.7575 2.87879 17.5432 2.78998C17.3287 2.70117 17.0903 2.70117 16.6134 2.70117H11.7466C8.44675 2.70117 6.79684 2.70117 5.77171 3.7263C4.74658 4.75143 4.74658 6.40134 4.74658 9.70117V19.0345C4.74658 22.3343 4.74658 23.9842 5.77171 25.0094C6.79684 26.0345 8.44675 26.0345 11.7466 26.0345H16.4132" stroke="black" stroke-opacity="0.2" stroke-width="1.70338" stroke-linecap="round" stroke-linejoin="round"/>
<path d="M9.41357 13.2051H18.7469M9.41357 16.7051H18.7469M9.41357 20.2051H14.2795" stroke="#246027" stroke-width="1.70338" stroke-linecap="round" stroke-linejoin="round"/>
<path d="M9.41357 13.2051H18.7469M9.41357 16.7051H18.7469M9.41357 20.2051H14.2795" stroke="black" stroke-opacity="0.2" stroke-width="1.70338" stroke-linecap="round" stroke-linejoin="round"/>
<path d="M24.7898 23.7266H18.7468M18.7468 23.7266L21.3367 21.1367M18.7468 23.7266L21.3367 26.3164" stroke="#246027" stroke-width="1.70419" stroke-linecap="round" stroke-linejoin="round"/>
<path d="M24.7898 23.7266H18.7468M18.7468 23.7266L21.3367 21.1367M18.7468 23.7266L21.3367 26.3164" stroke="black" stroke-opacity="0.2" stroke-width="1.70419" stroke-linecap="round" stroke-linejoin="round"/>
</g>
<defs>
<clipPath id="clip0_3250_3425">
<rect width="28" height="28" fill="white"/>
</clipPath>
</defs>
</svg>
