<svg width="16" height="16" viewBox="0 0 16 16" fill="none" xmlns="http://www.w3.org/2000/svg">
<path d="M15.6437 14.5907L15.6435 11.1162C15.6435 10.7325 15.3252 10.4216 14.9326 10.4216C14.5398 10.4216 14.2218 10.7325 14.2218 11.1163V12.912L10.0908 8.87219C9.95172 8.73621 9.76953 8.66867 9.58748 8.66867C9.40569 8.66867 9.2239 8.73634 9.085 8.87206C8.80732 9.14311 8.80706 9.58293 9.0846 9.85424L13.217 13.8958H11.3795C10.9868 13.8958 10.6685 14.2069 10.6685 14.5908C10.6685 14.9744 10.9869 15.2855 11.3795 15.2855H14.9326C15.1213 15.2855 15.302 15.2123 15.4355 15.0818C15.5689 14.9515 15.6437 14.7745 15.6437 14.5907ZM14.9327 4.86434C14.5398 4.86434 14.2218 4.55281 14.2218 4.16934V2.37361L10.16 6.30846C9.88207 6.57977 9.41288 6.58003 9.13521 6.30872C8.8574 6.0378 8.84781 5.59772 9.12522 5.32654L13.146 1.38974H11.3065H11.3051C10.9123 1.38974 10.5936 1.07887 10.5935 0.694998C10.5934 0.311649 10.9111 0.000389099 11.304 0.000389099L14.8565 -9.53674e-07C15.0454 -9.53674e-07 15.2643 0.0732603 15.3974 0.203515C15.5307 0.333771 15.6439 0.510479 15.6439 0.694607V4.16947C15.6437 4.55295 15.3253 4.86434 14.9327 4.86434ZM5.4836 6.33904L1.42221 2.37335V4.16947C1.42221 4.55321 1.11017 4.86355 0.717562 4.86355H0.720492C0.327751 4.86355 0.0109206 4.55281 0.0109206 4.16947L0.0111869 0.695127C0.0111869 0.51074 0.0864324 0.33403 0.219743 0.203775C0.353321 0.07339 0.534443 0.000259399 0.723023 0.000259399H4.27621C4.66895 0.000259399 4.98725 0.311389 4.98725 0.694998C4.98725 1.079 4.66882 1.38999 4.27621 1.38999H2.43929L6.49562 5.35699C6.77356 5.62817 6.76997 6.06864 6.49229 6.33956C6.21461 6.61048 5.76141 6.61022 5.4836 6.33904ZM2.42677 13.8332H4.26396C4.6567 13.8332 4.97486 14.1439 4.97486 14.5276C4.97486 14.9114 4.65657 15.2225 4.26396 15.2225L0.71117 15.2228H0.711037C0.522324 15.2228 0.341734 15.1499 0.208157 15.0197C0.0749791 14.8894 0 14.7128 0 14.5282L0.000399505 11.0536C0.000399505 10.6704 0.318695 10.3589 0.711303 10.3589C1.10404 10.3589 1.42221 10.6704 1.42221 11.0536V12.8496L5.52089 8.84161C5.65979 8.70576 5.84198 8.63783 6.02404 8.63783C6.20569 8.63783 6.38774 8.7055 6.52652 8.84122C6.80433 9.11227 6.80473 9.55248 6.52692 9.82405L2.42677 13.8332Z" fill="#012C12"/>
</svg>
