<svg width="19" height="19" viewBox="0 0 19 19" fill="none" xmlns="http://www.w3.org/2000/svg">
<path d="M4.02246 6.94434H5.74609C5.88518 6.94437 6.01884 7.00028 6.11719 7.09863C6.2154 7.19699 6.27051 7.33072 6.27051 7.46973C6.2704 7.60855 6.21525 7.74159 6.11719 7.83984C6.01884 7.93819 5.88518 7.99411 5.74609 7.99414H3.97266V14.9893H14.415V7.99414H12.6406C12.5016 7.99404 12.3688 7.93812 12.2705 7.83984C12.1722 7.74156 12.1163 7.60871 12.1162 7.46973C12.1162 7.3306 12.1721 7.19701 12.2705 7.09863C12.3688 7.00041 12.5017 6.94443 12.6406 6.94434H14.3652C14.6565 6.94447 14.9356 7.06072 15.1416 7.2666C15.3477 7.47274 15.4639 7.75243 15.4639 8.04395V14.9385C15.4639 15.23 15.3477 15.5097 15.1416 15.7158C14.9356 15.9218 14.6566 16.038 14.3652 16.0381H4.02246C3.73094 16.0381 3.45125 15.922 3.24512 15.7158C3.03905 15.5097 2.92285 15.2299 2.92285 14.9385V8.04395C2.92285 7.75243 3.03898 7.47274 3.24512 7.2666C3.45124 7.06053 3.73099 6.94434 4.02246 6.94434ZM9.19336 1.19824C9.2623 1.19824 9.33085 1.21188 9.39453 1.23828C9.45818 1.26468 9.51576 1.30379 9.56445 1.35254L12.4375 4.22559C12.5359 4.32401 12.5918 4.45753 12.5918 4.59668C12.5917 4.73579 12.5359 4.8694 12.4375 4.96777C12.3391 5.06612 12.2056 5.12109 12.0664 5.12109C11.9273 5.12109 11.7937 5.06612 11.6953 4.96777L9.80371 3.0752L9.71777 2.98926V9.76758C9.71777 9.90671 9.66283 10.0403 9.56445 10.1387C9.46608 10.237 9.33248 10.292 9.19336 10.292C9.05427 10.292 8.92062 10.237 8.82227 10.1387C8.72395 10.0403 8.66895 9.90666 8.66895 9.76758V2.98926L8.58398 3.0752L6.69141 4.96777C6.59299 5.06605 6.4594 5.12109 6.32031 5.12109C6.1812 5.12103 6.0476 5.06614 5.94922 4.96777C5.85085 4.8694 5.79597 4.73579 5.7959 4.59668C5.7959 4.45759 5.85094 4.324 5.94922 4.22559L8.82227 1.35254C8.87091 1.30384 8.92862 1.26468 8.99219 1.23828C9.05583 1.2119 9.12446 1.19826 9.19336 1.19824Z" fill="#012C12" stroke="white" stroke-width="0.1"/>
</svg>
