<svg width="28" height="28" viewBox="0 0 28 28" fill="none" xmlns="http://www.w3.org/2000/svg">
<path d="M17.5003 2.33203H7.00033C6.38149 2.33203 5.78799 2.57786 5.35041 3.01545C4.91282 3.45303 4.66699 4.04653 4.66699 4.66536V23.332C4.66699 23.9509 4.91282 24.5444 5.35041 24.9819C5.78799 25.4195 6.38149 25.6654 7.00033 25.6654H21.0003C21.6192 25.6654 22.2127 25.4195 22.6502 24.9819C23.0878 24.5444 23.3337 23.9509 23.3337 23.332V8.16536L17.5003 2.33203Z" stroke="#007A8E" stroke-width="1.75" stroke-linecap="round" stroke-linejoin="round"/>
<path d="M16.333 2.33203V6.9987C16.333 7.61754 16.5788 8.21103 17.0164 8.64861C17.454 9.0862 18.0475 9.33203 18.6663 9.33203H23.333" stroke="#007A8E" stroke-width="1.75" stroke-linecap="round" stroke-linejoin="round"/>
<path d="M11.6663 10.5H9.33301" stroke="#007A8E" stroke-width="1.75" stroke-linecap="round" stroke-linejoin="round"/>
<path d="M18.6663 15.168H9.33301" stroke="#007A8E" stroke-width="1.75" stroke-linecap="round" stroke-linejoin="round"/>
<path d="M18.6663 19.832H9.33301" stroke="#007A8E" stroke-width="1.75" stroke-linecap="round" stroke-linejoin="round"/>
</svg>
