<svg width="15" height="15" viewBox="0 0 15 15" fill="none" xmlns="http://www.w3.org/2000/svg">
<g clip-path="url(#clip0_3250_3013)">
<path fill-rule="evenodd" clip-rule="evenodd" d="M6.33975 1.67969H8.66025C9.80888 1.67968 10.7186 1.67967 11.4306 1.7754C12.1634 1.87391 12.7565 2.08149 13.2243 2.54921C13.6919 3.01694 13.8995 3.61004 13.9981 4.3428C14.0938 5.05481 14.0938 4.96458 14.0938 6.11318V8.68369C14.0938 9.83231 14.0938 10.7421 13.9981 11.4541C13.8995 12.1868 13.6919 12.7799 13.2243 13.2477C12.7565 13.7154 12.1634 13.9229 11.4306 14.0215C10.7186 14.1172 9.80888 14.1172 8.66025 14.1172H6.33975C5.19114 14.1172 4.28137 14.1172 3.56936 14.0215C2.8366 13.9229 2.24351 13.7154 1.77578 13.2477C1.30805 12.7799 1.10048 12.1868 1.00196 11.4541C0.906232 10.7421 0.906238 9.83231 0.90625 8.68369V6.11317C0.906238 4.96457 0.906232 5.05481 1.00196 4.3428C1.10048 3.61004 1.30805 3.01694 1.77578 2.54921C2.24351 2.08149 2.8366 1.87391 3.56936 1.7754C4.28137 1.67967 5.19114 1.67968 6.33975 1.67969ZM3.69428 2.70454C3.06547 2.78908 2.70319 2.94762 2.43869 3.21213C2.17418 3.47663 2.01564 3.83891 1.9311 4.46772C1.84474 5.11001 1.84375 4.95668 1.84375 6.14844V8.64844C1.84375 9.84019 1.84474 10.6869 1.9311 11.3292C2.01564 11.9579 2.17418 12.3203 2.43869 12.5848C2.70319 12.8492 3.06547 13.0078 3.69428 13.0923C4.33657 13.1787 5.18324 13.1797 6.375 13.1797H8.625C9.81675 13.1797 10.6634 13.1787 11.3057 13.0923C11.9345 13.0078 12.2968 12.8492 12.5613 12.5848C12.8258 12.3203 12.9844 11.9579 13.0689 11.3292C13.1553 10.6869 13.1562 9.84019 13.1562 8.64844V6.14844C13.1562 4.95668 13.1553 5.11001 13.0689 4.46772C12.9844 3.83891 12.8258 3.47663 12.5613 3.21213C12.2968 2.94762 11.9345 2.78908 11.3057 2.70454C10.6634 2.61818 9.81675 2.61719 8.625 2.61719H6.375C5.18324 2.61719 4.33657 2.61818 3.69428 2.70454ZM4.03125 4.89844C4.03125 4.63956 4.24112 4.42969 4.5 4.42969H10.5C10.7589 4.42969 10.9688 4.63956 10.9688 4.89844C10.9688 5.15732 10.7589 5.36719 10.5 5.36719H4.5C4.24112 5.36719 4.03125 5.15732 4.03125 4.89844ZM4.03125 7.39844C4.03125 7.13956 4.24112 6.92969 4.5 6.92969H10.5C10.7589 6.92969 10.9688 7.13956 10.9688 7.39844C10.9688 7.65731 10.7589 7.86719 10.5 7.86719H4.5C4.24112 7.86719 4.03125 7.65731 4.03125 7.39844ZM4.03125 9.89844C4.03125 9.63956 4.24112 9.42969 4.5 9.42969H8.625C8.88387 9.42969 9.09375 9.63956 9.09375 9.89844C9.09375 10.1573 8.88387 10.3672 8.625 10.3672H4.5C4.24112 10.3672 4.03125 10.1573 4.03125 9.89844Z" fill="#5A7665"/>
</g>
<defs>
<clipPath id="clip0_3250_3013">
<rect width="15" height="15" fill="white"/>
</clipPath>
</defs>
</svg>
