<svg width="21" height="21" viewBox="0 0 21 21" fill="none" xmlns="http://www.w3.org/2000/svg">
<path d="M5.33861 16.3302H15.6406C16.7366 16.3302 17.6282 15.4386 17.6282 14.3427V4.00755C17.6282 2.91163 16.7366 2.02002 15.6406 2.02002H5.33861C4.24268 2.02002 3.35107 2.91163 3.35107 4.00755V16.9928C3.35107 18.0887 4.24268 18.9803 5.33861 18.9803H14.9781H15.6406C16.7366 18.9803 17.6282 18.0887 17.6282 16.9928V16.9911C17.0741 17.4079 16.3858 17.6553 15.6406 17.6553H14.9781H5.33861C4.9733 17.6553 4.6761 17.3581 4.6761 16.9928C4.6761 16.6274 4.9733 16.3302 5.33861 16.3302ZM4.6761 4.00755C4.6761 3.64224 4.9733 3.34504 5.33861 3.34504H15.6406C16.0059 3.34504 16.3032 3.64224 16.3032 4.00755V14.3427C16.3032 14.708 16.0059 15.0052 15.6406 15.0052H5.33861C5.10643 15.0052 4.88339 15.0452 4.6761 15.1187V4.00755ZM9.37992 7.60432H8.0549C8.0549 6.92465 8.3462 6.2741 8.85415 5.81938C9.36876 5.35867 10.061 5.13846 10.7536 5.21537C11.863 5.3385 12.7564 6.22958 12.8779 7.33421C12.9886 8.34169 12.3978 9.06463 11.9437 9.52076C11.8269 9.63816 11.719 9.74102 11.6238 9.83181C11.1909 10.2447 11.1358 10.3141 11.1358 10.5994V10.6327H9.81075V10.5994C9.81075 9.72992 10.2272 9.33278 10.7094 8.8729C10.8031 8.78356 10.9 8.69117 11.0047 8.586C11.4325 8.15613 11.5989 7.82507 11.5608 7.47897C11.5066 6.98573 11.1057 6.5876 10.6075 6.53231C10.2846 6.4966 9.97562 6.59386 9.73794 6.80666C9.50705 7.01329 9.37992 7.29658 9.37992 7.60432ZM9.81055 11.6264H11.1356V12.9514H9.81055V11.6264Z" fill="#012C12"/>
</svg>
