<svg width="12" height="12" viewBox="0 0 12 12" fill="none" xmlns="http://www.w3.org/2000/svg">
<path d="M5.72949 0.0498047C6.74286 0.0498047 7.56429 0.871424 7.56445 1.88477V3.85742H9.51953C10.8221 3.85742 11.8188 5.01826 11.6211 6.30566L11.0352 10.1133C10.8756 11.1501 9.98356 11.9158 8.93457 11.916H1.63184C0.758289 11.916 0.0498047 11.2076 0.0498047 10.334V6.52637C0.0500401 5.65299 0.758434 4.94531 1.63184 4.94531H2.94238L2.95605 4.91504L4.87012 0.608398C5.02126 0.268896 5.3578 0.0498286 5.72949 0.0498047ZM1.63184 5.93262C1.30398 5.93262 1.03832 6.19856 1.03809 6.52637V10.334C1.03809 10.662 1.30384 10.9277 1.63184 10.9277H2.76953V5.93262H1.63184ZM5.74609 1.07031L3.8584 5.31641C3.83242 5.37485 3.80092 5.42994 3.76562 5.48145L3.75684 5.49414V10.9277H8.93457C9.49603 10.9276 9.97322 10.5178 10.0586 9.96289L10.6445 6.15625C10.7506 5.46703 10.2168 4.84473 9.51953 4.84473H7.61426C7.04134 4.84454 6.57732 4.38052 6.57715 3.80762V1.88477C6.57699 1.43908 6.23208 1.0736 5.79492 1.04004L5.75977 1.03809L5.74609 1.07031Z" fill="#7A9183" stroke="white" stroke-width="0.1"/>
</svg>
