<svg width="20" height="20" viewBox="0 0 20 20" fill="none" xmlns="http://www.w3.org/2000/svg">
<path d="M6.35295 1.65771H12.2789C12.7164 1.65771 13.0706 2.03088 13.0706 2.49105C13.0706 2.95121 12.7164 3.32438 12.2789 3.32438H6.35295C5.68573 3.32438 5.14304 3.89405 5.14304 4.5943V15.4056C5.14304 16.1059 5.68573 16.6755 6.35295 16.6755H12.2789C12.7164 16.6755 13.0706 17.0487 13.0706 17.5089C13.0706 17.969 12.7164 18.3422 12.2789 18.3422H6.35295C4.81292 18.3422 3.55971 17.0246 3.55971 15.4056V4.5943C3.55971 2.97521 4.81292 1.65771 6.35295 1.65771Z" fill="#012C12"/>
<path d="M16.8101 10.8362H9.14074C8.70319 10.8362 8.34908 10.463 8.34908 10.0028C8.34908 9.54266 8.70319 9.16949 9.14074 9.16949H16.7934L14.3693 6.44408C14.0701 6.108 14.0864 5.58066 14.4056 5.26608C14.7249 4.95116 15.2267 4.96866 15.5243 5.30474L19.1654 9.39783C19.2519 9.483 19.3187 9.58649 19.3621 9.70499C19.3825 9.75908 19.3851 9.81641 19.3943 9.87308C19.4011 9.91708 19.4192 9.95683 19.4192 10.0027C19.4192 10.0045 19.4182 10.006 19.4182 10.0077C19.4193 10.2139 19.3487 10.4202 19.205 10.5817L15.5243 14.7195C15.3689 14.8945 15.1578 14.9832 14.9467 14.9832C14.7527 14.9832 14.5587 14.9087 14.4056 14.7582C14.0863 14.4437 14.0701 13.9162 14.3692 13.5802L16.8101 10.8362Z" fill="#012C12"/>
</svg>
