<svg width="87" height="29" viewBox="0 0 87 29" fill="none" xmlns="http://www.w3.org/2000/svg">
<g clip-path="url(#clip0_834_11515)">
<mask id="mask0_834_11515" style="mask-type:luminance" maskUnits="userSpaceOnUse" x="0" y="0" width="71" height="28">
<path d="M71 0H0V27.4225H71V0Z" fill="white"/>
</mask>
<g mask="url(#mask0_834_11515)">
<path d="M40.95 6.43555V7.99775H33.8484V12.7246H39.602V14.2868H33.8484V19.4064H40.95V20.9686H31.6045V6.43555H40.95Z" fill="white"/>
<path d="M40.95 6.43555V7.99775H33.8484V12.7246H39.602V14.2868H33.8484V19.4064H40.95V20.9686H31.6045V6.43555H40.95Z" fill="white"/>
<path d="M67.8203 6.43555L64.2147 13.0589L60.4055 6.43555H57.3176V20.9686H59.5618V9.31765L64.2614 17.2944L68.7575 9.31765V20.9686H71.0005V6.43555H67.8203Z" fill="white"/>
<path d="M67.8203 6.43555L64.2147 13.0589L60.4055 6.43555H57.3176V20.9686H59.5618V9.31765L64.2614 17.2944L68.7575 9.31765V20.9686H71.0005V6.43555H67.8203Z" fill="white"/>
<path d="M45.981 12.9104H48.7972C50.9335 12.9104 52.0624 11.922 52.0624 10.3511C52.0624 9.12412 50.868 7.99489 49.0055 7.99489H45.981V12.9114V12.9104ZM45.981 14.1326V20.9686H43.7244V6.43555L49.4809 6.44605C52.3832 6.43555 54.319 7.96806 54.319 10.2055C54.319 12.7256 52.5485 13.9851 49.9133 14.146C51.8178 15.6881 53.4436 18.0463 55.08 20.9695H52.2286C50.3603 17.576 48.5145 14.1345 45.9937 14.1345H45.981V14.1326Z" fill="white"/>
<path d="M45.981 12.9104H48.7972C50.9335 12.9104 52.0624 11.922 52.0624 10.3511C52.0624 9.12412 50.868 7.99489 49.0055 7.99489H45.981V12.9114V12.9104ZM45.981 14.1326V20.9686H43.7244V6.43555L49.4809 6.44605C52.3832 6.43555 54.319 7.96806 54.319 10.2055C54.319 12.7256 52.5485 13.9851 49.9133 14.146C51.8178 15.6881 53.4436 18.0463 55.08 20.9695H52.2286C50.3603 17.576 48.5145 14.1345 45.9937 14.1345H45.981V14.1326Z" fill="white"/>
<path d="M10.2933 13.2247L0.157486 11.6462L0.190744 11.4403L10.3266 13.0187L10.2933 13.2247ZM15.8621 0.114939L15.4747 0.0699209L14.746 6.06399C14.884 5.97968 15.0248 5.89829 15.1676 5.82069L15.8612 0.114939H15.8621ZM13.898 6.65112L13.6289 0L13.2572 0.0143673L13.537 6.94612C13.6544 6.8446 13.7747 6.74593 13.8969 6.65112H13.898ZM10.4792 12.468L0.717005 9.36752L0.645597 9.58206L10.4078 12.6826L10.4792 12.468ZM14.5631 21.2359L15.3075 27.365L16.0274 27.2807L15.3476 21.689C15.0776 21.5501 14.8155 21.3988 14.5621 21.2359H14.5631ZM13.7355 17.3653L13.3619 17.3223L13.0362 20.0041C12.864 19.8317 12.6997 19.6527 12.5422 19.4678L13.1702 17.2859L12.7926 17.1814L12.2409 19.0952C12.1303 18.9505 12.0247 18.804 11.923 18.6527L12.6361 17.1259L12.2644 16.9592L11.6648 18.2446C11.5953 18.1287 11.5288 18.0119 11.4652 17.8921L12.1363 16.8903L11.7811 16.6623L11.2491 17.4573C11.207 17.3672 11.1669 17.2763 11.1278 17.1853L11.6775 16.5838L11.3478 16.2954L10.9478 16.7332C10.9233 16.6661 10.8998 16.5981 10.8764 16.5311L11.2657 16.215L10.9732 15.8702L10.7325 16.0656C10.7198 16.0177 10.7072 15.9698 10.6944 15.9219L10.9155 15.7916L10.6709 15.3942L10.5858 15.4439C10.5799 15.4123 10.5731 15.3808 10.5672 15.3491L10.6338 15.3223L10.5134 15.0369C10.5272 15.1288 10.354 14.5733 10.354 14.5733L10.262 14.0053V13.2573H0V14.1576H8.3096L0.103687 15.4363L0.245523 16.3089L8.37125 15.0426L0.544845 17.5282L0.817754 18.3519L8.6588 15.8616L1.29804 19.4946L1.68833 20.2522L9.11758 16.5856L2.33491 21.303L2.82693 21.9811L9.69665 17.2035L3.62903 22.9274L4.20616 23.5136L10.3589 17.7092L5.15499 24.3441L5.80059 24.8297L11.0798 18.099L6.88931 25.527L7.58576 25.9043L11.791 18.4506L11.8017 18.4678L8.80554 26.4503L9.53625 26.7137L12.3446 19.2312C12.3368 19.2207 12.461 19.3749 12.4512 19.3634L10.8783 27.0834L11.6247 27.229L13.0861 20.0568C13.0733 20.0444 13.3589 20.3145 13.356 20.3125L13.0694 27.3966L13.8119 27.4254L14.075 20.9035C13.8315 20.7235 13.5976 20.5319 13.3736 20.3289L13.7336 17.3672L13.7355 17.3653ZM13.9762 17.374L14.12 20.9332C14.2413 21.0214 14.3645 21.1066 14.4897 21.1899L14.3352 17.3605L13.9762 17.375V17.374ZM20.2688 4.72494L21.8564 2.35241L21.4857 2.11488L19.7533 4.70292C19.9264 4.70579 20.0976 4.71249 20.2678 4.72399L20.2688 4.72494ZM24.9376 5.13968L24.6324 4.77954L23.621 5.60135C23.7765 5.67511 23.9301 5.75365 24.0808 5.83603L24.9376 5.14064V5.13968ZM26.1291 6.84366L25.8728 6.42795L25.3984 6.70766C25.5334 6.8149 25.6664 6.92605 25.7955 7.04L26.1291 6.84267V6.84366ZM22.2007 5.06401L23.5056 3.63494L23.1623 3.33418L21.6999 4.93566C21.8681 4.97398 22.0354 5.01708 22.1997 5.06401H22.2007ZM18.0043 0.564158L17.6121 0.455924L16.2055 5.33987C16.361 5.27952 16.5185 5.22205 16.6779 5.16937L18.0043 0.564158ZM18.3976 4.77954L20.0125 1.31988L19.6261 1.14652L17.8928 4.85904C18.0591 4.82839 18.2274 4.80157 18.3976 4.77954ZM16.5997 16.3453L22.771 22.1679C22.8668 22.1334 22.9618 22.097 23.0557 22.0596L16.7914 16.1499L16.5987 16.3453H16.5997ZM17.526 14.9459L27.2882 18.0463L27.3586 17.8337L17.5964 14.7332L17.526 14.9459ZM25.3465 20.7474L25.8405 21.0386L26.1604 20.5194L25.8415 20.3317C25.6821 20.4764 25.5167 20.6143 25.3465 20.7474ZM19.6174 22.7129L21.3898 25.3613L21.9523 25.0002L20.3989 22.6793C20.1407 22.7004 19.8805 22.7119 19.6174 22.7129ZM21.5913 22.5031L23.0898 24.1439L23.578 23.7167L22.3034 22.3202C22.0696 22.3901 21.8329 22.4504 21.5913 22.5021V22.5031ZM24.8682 21.098L17.1328 15.7179L16.9821 15.9267L24.6383 21.2512C24.7166 21.2014 24.7929 21.1507 24.8692 21.098H24.8682ZM28.0062 13.2821V14.1327H17.7431V13.4105L17.6512 12.8435L17.4761 12.3138L17.2218 11.8196L16.8951 11.3684L16.5018 10.969L16.0529 10.6318L15.5589 10.3646L15.0267 10.173L14.4574 10.062L13.852 10.039L13.2631 10.1079L12.7124 10.2602L12.1979 10.4901L11.7254 10.7927L11.3028 11.1625L10.9419 11.5887L10.6504 12.0628L10.5164 12.3808C10.5311 12.2812 10.5585 12.1289 10.5545 12.151L1.43792 7.65012L1.54943 7.43272L10.6005 11.899C10.5937 11.9326 10.6817 11.5475 10.6778 11.5628L2.50413 5.88008L2.65771 5.66744L10.7482 11.2947C10.7424 11.3157 10.8626 10.9221 10.8578 10.9364L3.81978 4.29488L4.01639 4.0947L10.9604 10.6452C10.9517 10.6692 11.1229 10.2363 11.115 10.2564L5.35845 2.91945L5.59713 2.73938L11.252 9.94894C11.2481 9.95752 11.387 9.67016 11.4671 9.5208L7.09763 1.77676L7.37643 1.62542L11.6491 9.19797C11.6335 9.22382 11.9572 8.71335 11.9523 8.72099L9.01487 0.89269L9.33082 0.778711L12.1881 8.39245C12.1832 8.39916 12.4649 8.03613 12.6214 7.85608C12.6214 7.85608 12.6214 7.85701 12.6204 7.858L11.0788 0.295967L11.4261 0.227962L12.9149 7.53518C12.9149 7.53518 13.3032 7.14922 13.5175 6.96339L13.8255 9.50067L13.942 6.61664C14.1747 6.43752 14.4164 6.26989 14.6668 6.11382L14.5367 9.3254L15.2606 5.7728C15.5237 5.63392 15.7946 5.50749 16.0724 5.39447L15.2938 9.21717L16.8305 5.12244C17.1142 5.03432 17.4047 4.95961 17.7001 4.89831L16.0451 9.30813L18.6137 4.7556C18.9062 4.72494 19.2035 4.7077 19.5039 4.70387L16.7669 9.55429L20.5378 4.74793C20.8322 4.77667 21.1227 4.81977 21.4084 4.87532L17.4458 9.92688L22.501 5.15788C22.7769 5.24696 23.0468 5.34945 23.311 5.46247L18.0709 10.4058L24.3889 6.01224C24.6334 6.15787 24.8711 6.31493 25.1 6.48157L18.6196 10.9891L26.0801 7.30722C26.2817 7.50262 26.4744 7.70759 26.6573 7.92026L19.0539 11.6721L27.1952 9.08688L27.4535 9.86463L19.3258 12.446L27.7645 11.1318L27.8986 11.9556L19.3738 13.2831H28.0052L28.0062 13.2821ZM11.0681 10.9441L10.9155 10.7774C10.9116 10.7889 10.9077 10.7994 10.9038 10.8109L11.0681 10.9441ZM11.4564 10.4556L11.1991 10.0705C11.1884 10.0935 11.1786 10.1165 11.1688 10.1395L11.4574 10.4556H11.4564ZM11.9298 10.0217L11.5923 9.29949C11.5699 9.33876 11.5474 9.37803 11.5258 9.41828L11.9298 10.0217ZM12.4923 9.68358L12.1402 8.46048C12.0951 8.52174 12.0511 8.58307 12.0081 8.64532L12.4933 9.68358H12.4923ZM13.1359 9.49489L12.9002 7.55437C12.8161 7.64247 12.7349 7.73157 12.6547 7.82253L13.1369 9.49588L13.1359 9.49489ZM17.6815 14.3961L27.8174 15.9746L27.8506 15.7696L17.7148 14.1911L17.6815 14.3961ZM17.2951 15.4574L26.2944 19.8988C26.3531 19.8384 26.4098 19.7772 26.4666 19.7158L17.4057 15.2438L17.2951 15.4574ZM23.5447 21.8518L24.5845 22.6966L24.9915 22.2167L24.158 21.5405C23.9585 21.6516 23.753 21.756 23.5447 21.8528V21.8518ZM15.1422 17.2025L17.0809 22.3671C17.2081 22.4025 17.3362 22.4351 17.4664 22.4657L15.4493 17.0924L15.1432 17.2025H15.1422ZM17.7363 22.5251L19.5088 26.322L20.1368 26.0413L18.555 22.6535C18.2782 22.6229 18.0053 22.5797 17.7363 22.5251ZM16.1614 16.7035L20.8156 22.6372C20.9271 22.6229 21.0377 22.6066 21.1482 22.5884L16.3952 16.5282L16.1624 16.7035H16.1614ZM15.6714 16.9918L18.8837 22.6851C19.005 22.6947 19.1273 22.7014 19.2495 22.7052L15.9423 16.8443L15.6704 16.9909L15.6714 16.9918ZM14.5778 17.3318L15.4787 21.7541C15.6059 21.8173 15.735 21.8767 15.8651 21.9341L14.9143 17.2667L14.5778 17.3328V17.3318ZM16.0313 22.005L17.4703 26.9991L18.151 26.8114L16.852 22.3C16.5723 22.2139 16.2984 22.1152 16.0313 22.005Z" fill="#00FFBE"/>
</g>
</g>
<rect x="74" width="12.5459" height="12.8672" rx="6.27295" fill="#00FFBE"/>
<path d="M78.3406 5.14355C78.6055 5.14356 78.8489 5.15961 79.0701 5.19238C79.2911 5.22243 79.4903 5.28655 79.6677 5.38477C79.837 5.48033 79.9708 5.61983 80.0691 5.80273C80.1701 5.983 80.2214 6.21947 80.2214 6.51172C80.2214 6.82028 80.2146 7.18617 80.2009 7.60938C80.19 8.0327 80.1843 8.31147 80.1843 8.44531C80.1843 8.5682 80.2016 8.66532 80.2371 8.73633C80.2753 8.80734 80.3334 8.86 80.4099 8.89551C80.4564 8.9173 80.5285 8.93107 80.6267 8.93652C80.7277 8.93925 80.8192 8.94141 80.9011 8.94141V9.24023C80.781 9.2921 80.6391 9.34011 80.4753 9.38379C80.3115 9.42748 80.1378 9.44921 79.9548 9.44922C79.6189 9.44922 79.3711 9.40008 79.2126 9.30176C79.0544 9.20071 78.9467 9.05672 78.8894 8.87109H78.865C78.7721 8.96396 78.6819 9.04382 78.5945 9.10938C78.5099 9.17487 78.4183 9.23094 78.3201 9.27734C78.1917 9.33741 78.0672 9.3809 77.947 9.4082C77.8297 9.4382 77.6646 9.4531 77.4519 9.45312C77.1352 9.45312 76.8643 9.36043 76.6404 9.1748C76.4164 8.98635 76.3044 8.73735 76.3044 8.42871C76.3045 8.25144 76.3286 8.10131 76.3777 7.97852C76.4268 7.85296 76.4966 7.74203 76.5867 7.64648C76.6686 7.55909 76.7634 7.48704 76.8699 7.42969C76.9791 7.37233 77.0979 7.31869 77.2263 7.26953C77.4721 7.17942 77.767 7.08678 78.1111 6.99121C78.4552 6.89288 78.7066 6.80499 78.865 6.72852V6.33496C78.865 6.26681 78.8593 6.17698 78.8484 6.06543C78.8375 5.95345 78.8146 5.8587 78.7791 5.78223C78.7408 5.69486 78.6803 5.6216 78.5984 5.56152C78.5165 5.50147 78.4089 5.47073 78.2751 5.4707C78.155 5.4707 78.0534 5.48891 77.9714 5.52441C77.8924 5.55715 77.8281 5.5915 77.7791 5.62695C77.7873 5.68158 77.8102 5.76515 77.8484 5.87695C77.8866 5.98885 77.906 6.09648 77.906 6.2002C77.906 6.24658 77.8934 6.30507 77.8689 6.37598C77.8443 6.44426 77.8089 6.49907 77.7625 6.54004C77.6997 6.59462 77.6287 6.63696 77.5496 6.66699C77.4731 6.69701 77.3542 6.71191 77.1931 6.71191C76.9638 6.71188 76.79 6.65804 76.6726 6.54883C76.5552 6.43687 76.4968 6.29174 76.4968 6.11426C76.4968 5.96131 76.5573 5.82428 76.6775 5.7041C76.8003 5.58136 76.9492 5.48049 77.1238 5.40137C77.2958 5.31947 77.4937 5.25659 77.7175 5.21289C77.9415 5.16646 78.1494 5.14355 78.3406 5.14355ZM83.1833 5.27441V8.52734C83.1834 8.62291 83.2039 8.70517 83.2449 8.77344C83.2858 8.83878 83.3443 8.88819 83.4207 8.9209C83.4752 8.94546 83.5358 8.96722 83.6013 8.98633C83.6666 9.00536 83.7347 9.01916 83.8054 9.02734V9.32617H81.2166V9.02734C81.2876 9.02188 81.3573 9.01503 81.4255 9.00684C81.4936 8.99866 81.5522 8.98487 81.6013 8.96582C81.6887 8.93304 81.7504 8.88626 81.7859 8.82617C81.8214 8.76336 81.8396 8.68109 81.8396 8.58008V6.19629C81.8396 6.10081 81.8178 6.01725 81.7742 5.94629C81.7306 5.8727 81.6755 5.81418 81.6101 5.77051C81.5609 5.73773 81.4856 5.70582 81.3845 5.67578C81.2862 5.64574 81.196 5.62636 81.114 5.61816V5.31934L83.1218 5.21289L83.1833 5.27441ZM78.865 7.10547C78.712 7.15736 78.5601 7.21785 78.4099 7.28613C78.2599 7.35163 78.1373 7.42144 78.0417 7.49512C77.9407 7.57159 77.8608 7.66986 77.8035 7.79004C77.7462 7.90742 77.7175 8.047 77.7175 8.20801C77.7176 8.4209 77.7655 8.57535 77.8611 8.6709C77.9593 8.76639 78.0796 8.8144 78.2214 8.81445C78.3717 8.81445 78.495 8.78372 78.5906 8.72363C78.6888 8.66084 78.7747 8.58419 78.8484 8.49414L78.865 7.10547ZM82.4001 2.98438C82.6214 2.98438 82.812 3.05759 82.9705 3.20508C83.1288 3.35255 83.2078 3.53075 83.2078 3.73828C83.2077 3.94573 83.1266 4.12309 82.9656 4.27051C82.8072 4.41518 82.6186 4.4873 82.4001 4.4873C82.1791 4.48722 81.988 4.41518 81.8269 4.27051C81.6686 4.1231 81.5897 3.9457 81.5896 3.73828C81.5896 3.5307 81.6685 3.35257 81.8269 3.20508C81.9879 3.05775 82.1791 2.98446 82.4001 2.98438Z" fill="black"/>
<defs>
<clipPath id="clip0_834_11515">
<rect width="71" height="29" fill="white"/>
</clipPath>
</defs>
</svg>
