<svg width="15" height="16" viewBox="0 0 15 16" fill="none" xmlns="http://www.w3.org/2000/svg">
<path d="M14.2925 11.9937H0.5C1.65697 11.5309 2.41562 10.4104 2.41562 9.16429V5.48062C2.41562 2.7299 4.64553 0.5 7.39625 0.5C10.147 0.5 12.3769 2.7299 12.3769 5.48062V9.16429C12.3769 10.4104 13.1355 11.5309 14.2925 11.9937Z" stroke="white" stroke-linecap="round" stroke-linejoin="round"/>
<path d="M14.2925 11.9937H0.5C1.65697 11.5309 2.41562 10.4104 2.41562 9.16429V5.48062C2.41562 2.7299 4.64553 0.5 7.39625 0.5C10.147 0.5 12.3769 2.7299 12.3769 5.48062V9.16429C12.3769 10.4104 13.1355 11.5309 14.2925 11.9937Z" stroke="white" stroke-linecap="round" stroke-linejoin="round"/>
<path d="M9.31221 13.9941C8.81851 14.4681 8.14237 14.7604 7.39658 14.7604C6.65079 14.7604 5.97465 14.4681 5.48096 13.9941" stroke="white" stroke-linecap="round" stroke-linejoin="round"/>
<path d="M9.31221 13.9941C8.81851 14.4681 8.14237 14.7604 7.39658 14.7604C6.65079 14.7604 5.97465 14.4681 5.48096 13.9941" stroke="white" stroke-linecap="round" stroke-linejoin="round"/>
</svg>
