<svg width="20" height="23" viewBox="0 0 20 23" fill="none" xmlns="http://www.w3.org/2000/svg">
<path d="M0 3.00195C0 1.34402 1.34402 0 3.00195 0H10.9508L19.3249 7.25948V19.3349C19.3249 20.9928 17.9809 22.3369 16.323 22.3369H3.00195C1.34402 22.3369 0 20.9928 0 19.3349V3.00195Z" fill="#FF1607"/>
<path d="M13.5959 7.15175H19.9975L11.3445 0V4.90028C11.3445 6.14373 12.3525 7.15175 13.5959 7.15175Z" fill="white" fill-opacity="0.5"/>
<path d="M2.7591 17.0508V11.5927H4.91249C5.32647 11.5927 5.67915 11.6717 5.97053 11.8299C6.26191 11.9862 6.484 12.2039 6.6368 12.4828C6.79138 12.76 6.86867 13.0798 6.86867 13.4423C6.86867 13.8047 6.79049 14.1245 6.63414 14.4017C6.47779 14.6789 6.25125 14.8947 5.95454 15.0493C5.6596 15.2039 5.30248 15.2812 4.88318 15.2812H3.51066V14.3564H4.69662C4.91871 14.3564 5.10171 14.3182 5.24563 14.2418C5.39132 14.1636 5.4997 14.0561 5.57077 13.9193C5.64361 13.7807 5.68004 13.6217 5.68004 13.4423C5.68004 13.261 5.64361 13.1029 5.57077 12.9679C5.4997 12.8311 5.39132 12.7253 5.24563 12.6507C5.09994 12.5743 4.91516 12.5361 4.69129 12.5361H3.91308V17.0508H2.7591ZM9.40298 17.0508H7.46812V11.5927H9.41897C9.96797 11.5927 10.4406 11.702 10.8368 11.9205C11.233 12.1373 11.5377 12.4491 11.7509 12.8559C11.9659 13.2628 12.0734 13.7496 12.0734 14.3164C12.0734 14.885 11.9659 15.3736 11.7509 15.7822C11.5377 16.1908 11.2312 16.5044 10.8315 16.723C10.4335 16.9415 9.95731 17.0508 9.40298 17.0508ZM8.62211 16.062H9.355C9.69614 16.062 9.98308 16.0016 10.2158 15.8808C10.4504 15.7582 10.6263 15.569 10.7435 15.3131C10.8626 15.0555 10.9221 14.7233 10.9221 14.3164C10.9221 13.9131 10.8626 13.5835 10.7435 13.3277C10.6263 13.0718 10.4512 12.8835 10.2185 12.7627C9.98574 12.6418 9.6988 12.5814 9.35767 12.5814H8.62211V16.062ZM12.7781 17.0508V11.5927H16.392V12.5441H13.9321V13.8447H16.1521V14.7961H13.9321V17.0508H12.7781Z" fill="white"/>
</svg>
