<svg width="12" height="14" viewBox="0 0 12 14" fill="none" xmlns="http://www.w3.org/2000/svg">
<path d="M10.8041 8.17156C8.11021 7.59267 5.98952 5.46911 5.40203 2.76953C4.81454 5.46911 2.69385 7.59267 0 8.17156C2.69385 8.75045 4.81454 10.874 5.40203 13.5736C5.98952 10.874 8.11021 8.75045 10.8041 8.17156Z" fill="#019A20"/>
<path d="M10.8041 8.17156C8.11021 7.59267 5.98952 5.46911 5.40203 2.76953C4.81454 5.46911 2.69385 7.59267 0 8.17156C2.69385 8.75045 4.81454 10.874 5.40203 13.5736C5.98952 10.874 8.11021 8.75045 10.8041 8.17156Z" fill="black" fill-opacity="0.2"/>
<path d="M11.8631 2.11415C10.8088 1.8876 9.97884 1.05652 9.74892 0C9.519 1.05652 8.68904 1.8876 7.63477 2.11415C8.68904 2.34071 9.519 3.17179 9.74892 4.22831C9.97884 3.17179 10.8088 2.34071 11.8631 2.11415Z" fill="#019A20"/>
<path d="M11.8631 2.11415C10.8088 1.8876 9.97884 1.05652 9.74892 0C9.519 1.05652 8.68904 1.8876 7.63477 2.11415C8.68904 2.34071 9.519 3.17179 9.74892 4.22831C9.97884 3.17179 10.8088 2.34071 11.8631 2.11415Z" fill="black" fill-opacity="0.2"/>
</svg>
