<svg width="20" height="20" viewBox="0 0 20 20" fill="none" xmlns="http://www.w3.org/2000/svg">
<path d="M16.6668 9.16854C16.463 7.70205 15.7827 6.34325 14.7307 5.30145C13.6787 4.25965 12.3133 3.59264 10.8449 3.40316C9.37648 3.21369 7.88651 3.51227 6.6045 4.25291C5.32248 4.99355 4.31954 6.13515 3.75016 7.50187M3.3335 4.16854V7.50187H6.66683" stroke="#012C12" stroke-width="1.5" stroke-linecap="round" stroke-linejoin="round"/>
<path d="M3.3335 10.832C3.5373 12.2985 4.21761 13.6573 5.26963 14.6991C6.32166 15.7409 7.68703 16.4079 9.15544 16.5974C10.6238 16.7869 12.1138 16.4883 13.3958 15.7477C14.6778 15.007 15.6808 13.8654 16.2502 12.4987M16.6668 15.832V12.4987H13.3335" stroke="#012C12" stroke-width="1.5" stroke-linecap="round" stroke-linejoin="round"/>
</svg>
