<svg width="15" height="15" viewBox="0 0 15 15" fill="none" xmlns="http://www.w3.org/2000/svg">
<path d="M12.5 6.87543C12.3472 5.77556 11.8369 4.75646 11.0479 3.97511C10.2589 3.19376 9.23485 2.6935 8.13354 2.5514C7.03224 2.40929 5.91476 2.63323 4.95325 3.18871C3.99174 3.74418 3.23953 4.60039 2.8125 5.62543M2.5 3.12543V5.62543H5" stroke="#7A9183" stroke-linecap="round" stroke-linejoin="round"/>
<path d="M2.5 8.125C2.65285 9.22486 3.16308 10.244 3.9521 11.0253C4.74112 11.8067 5.76515 12.3069 6.86646 12.449C7.96776 12.5911 9.08524 12.3672 10.0467 11.8117C11.0083 11.2562 11.7605 10.4 12.1875 9.375M12.5 11.875V9.375H10" stroke="#7A9183" stroke-linecap="round" stroke-linejoin="round"/>
</svg>
