<svg width="28" height="28" viewBox="0 0 28 28" fill="none" xmlns="http://www.w3.org/2000/svg">
<path d="M2.33496 13.997C2.33496 15.5289 2.63668 17.0458 3.22291 18.461C3.80913 19.8763 4.66836 21.1622 5.75156 22.2454C6.83476 23.3286 8.1207 24.1879 9.53596 24.7741C10.9512 25.3603 12.4681 25.662 14 25.662C15.5318 25.662 17.0487 25.3603 18.464 24.7741C19.8792 24.1879 21.1652 23.3286 22.2484 22.2454C23.3316 21.1622 24.1908 19.8763 24.777 18.461C25.3632 17.0458 25.665 15.5289 25.665 13.997C25.665 12.4652 25.3632 10.9483 24.777 9.53303C24.1908 8.11777 23.3316 6.83183 22.2484 5.74863C21.1652 4.66544 19.8792 3.8062 18.464 3.21998C17.0487 2.63376 15.5318 2.33203 14 2.33203C12.4681 2.33203 10.9512 2.63376 9.53596 3.21998C8.1207 3.8062 6.83476 4.66544 5.75156 5.74863C4.66836 6.83183 3.80913 8.11777 3.22291 9.53303C2.63668 10.9483 2.33496 12.4652 2.33496 13.997Z" stroke="#FD582D" stroke-width="1.94" stroke-linecap="round" stroke-linejoin="round"/>
<path fill-rule="evenodd" clip-rule="evenodd" d="M14.0065 14.7285L16.9622 17.6843C17.0608 17.7795 17.1928 17.8322 17.3298 17.831C17.4668 17.8298 17.5978 17.7748 17.6947 17.6779C17.7916 17.5811 17.8465 17.45 17.8477 17.313C17.8489 17.176 17.7962 17.044 17.7011 16.9455L14.7453 13.9897L17.7011 11.0339C17.7962 10.9354 17.8489 10.8034 17.8477 10.6664C17.8465 10.5294 17.7916 10.3984 17.6947 10.3015C17.5978 10.2046 17.4668 10.1496 17.3298 10.1485C17.1928 10.1473 17.0608 10.1999 16.9622 10.2951L14.0065 13.2509L11.0507 10.2951C10.9517 10.2023 10.8205 10.1516 10.6848 10.1538C10.5491 10.156 10.4196 10.2109 10.3237 10.3069C10.2277 10.4029 10.1729 10.5324 10.1708 10.6681C10.1687 10.8038 10.2195 10.935 10.3124 11.0339L13.2676 13.9897L10.3119 16.9455C10.262 16.9937 10.2221 17.0514 10.1948 17.1151C10.1674 17.1788 10.153 17.2474 10.1524 17.3168C10.1518 17.3862 10.165 17.455 10.1913 17.5192C10.2175 17.5834 10.2563 17.6417 10.3054 17.6908C10.3544 17.7399 10.4128 17.7786 10.477 17.8049C10.5412 17.8312 10.61 17.8444 10.6794 17.8438C10.7488 17.8432 10.8173 17.8288 10.8811 17.8014C10.9448 17.774 11.0025 17.7342 11.0507 17.6843L14.0065 14.7285Z" fill="#FD582D" stroke="#FD582D" stroke-width="0.8"/>
</svg>
