<svg width="20" height="20" viewBox="0 0 20 20" fill="none" xmlns="http://www.w3.org/2000/svg">
<path fill-rule="evenodd" clip-rule="evenodd" d="M8.35858 5.39143C8.60266 5.63551 8.60266 6.03124 8.35858 6.27531L5.25888 9.37504H12.0833C12.8778 9.37504 14.0556 9.60821 15.0527 10.3261C16.0817 11.067 16.875 12.2964 16.875 14.1667C16.875 14.5119 16.5952 14.7917 16.25 14.7917C15.9048 14.7917 15.625 14.5119 15.625 14.1667C15.625 12.7037 15.0294 11.8497 14.3223 11.3406C13.5833 10.8085 12.6777 10.625 12.0833 10.625H5.25888L8.35858 13.7248C8.60266 13.9689 8.60266 14.3645 8.35858 14.6086C8.11453 14.8527 7.7188 14.8527 7.47472 14.6086L3.30806 10.442C3.06398 10.1979 3.06398 9.80221 3.30806 9.55812L7.47472 5.39143C7.7188 5.14736 8.11453 5.14736 8.35858 5.39143Z" fill="#012C12"/>
</svg>
