<svg width="28" height="28" viewBox="0 0 28 28" fill="none" xmlns="http://www.w3.org/2000/svg">
<path d="M13.9999 25.6654C20.4432 25.6654 25.6666 20.442 25.6666 13.9987C25.6666 7.55538 20.4432 2.33203 13.9999 2.33203C7.5566 2.33203 2.33325 7.55538 2.33325 13.9987C2.33325 20.442 7.5566 25.6654 13.9999 25.6654Z" stroke="#007A8E" stroke-width="1.75" stroke-linecap="round" stroke-linejoin="round"/>
<path d="M14 21C17.866 21 21 17.866 21 14C21 10.134 17.866 7 14 7C10.134 7 7 10.134 7 14C7 17.866 10.134 21 14 21Z" stroke="#007A8E" stroke-width="1.75" stroke-linecap="round" stroke-linejoin="round"/>
<path d="M14.0001 16.3346C15.2887 16.3346 16.3334 15.29 16.3334 14.0013C16.3334 12.7126 15.2887 11.668 14.0001 11.668C12.7114 11.668 11.6667 12.7126 11.6667 14.0013C11.6667 15.29 12.7114 16.3346 14.0001 16.3346Z" stroke="#007A8E" stroke-width="1.75" stroke-linecap="round" stroke-linejoin="round"/>
</svg>
