<svg width="22" height="21" viewBox="0 0 22 21" fill="none" xmlns="http://www.w3.org/2000/svg">
<path d="M4.30601 3.52979L19.2495 10.5L4.30601 17.4703C4.22071 17.5016 4.12759 17.508 4.03848 17.4887C3.94937 17.4693 3.86828 17.4252 3.80551 17.3618C3.7409 17.2967 3.69642 17.2158 3.677 17.1281C3.65759 17.0404 3.66399 16.9492 3.69551 16.8648L5.95784 10.5L3.69551 4.13529C3.66399 4.05082 3.65759 3.95968 3.677 3.87196C3.69642 3.78424 3.7409 3.70336 3.80551 3.63829C3.86828 3.57489 3.94937 3.53074 4.03848 3.51142C4.12759 3.4921 4.22071 3.49849 4.30601 3.52979Z" stroke="#D3DFD4" stroke-linecap="round" stroke-linejoin="round"/>
<path d="M5.95898 10.5H19.2507" stroke="#D3DFD4" stroke-linecap="round" stroke-linejoin="round"/>
</svg>
