<svg width="21" height="21" viewBox="0 0 21 21" fill="none" xmlns="http://www.w3.org/2000/svg">
<path d="M10.5003 1.96875C11.1426 1.97615 11.7823 2.05035 12.4091 2.19016C12.6827 2.25119 12.8874 2.47932 12.9184 2.75796L13.0674 4.09396C13.1348 4.70738 13.6528 5.17199 14.2702 5.17263C14.4361 5.1729 14.6003 5.13833 14.7537 5.07048L15.9792 4.53212C16.2341 4.42014 16.5319 4.48119 16.7222 4.68442C17.6078 5.63031 18.2674 6.76476 18.6514 8.00238C18.7341 8.26926 18.6389 8.55928 18.414 8.72506L17.3277 9.52577C17.0177 9.75345 16.8348 10.115 16.8348 10.4996C16.8348 10.884 17.0177 11.2456 17.3284 11.4738L18.4156 12.2748C18.6405 12.4405 18.7359 12.7305 18.6531 12.9975C18.2693 14.2349 17.6101 15.3693 16.725 16.3153C16.5349 16.5185 16.2373 16.5798 15.9824 16.468L14.7519 15.9289C14.3998 15.7748 13.9956 15.7974 13.6628 15.9897C13.3301 16.182 13.1088 16.521 13.0665 16.903L12.9185 18.2388C12.888 18.5143 12.6878 18.7409 12.4181 18.8051C11.1508 19.1066 9.83031 19.1066 8.5629 18.8051C8.2933 18.7409 8.09304 18.5143 8.06253 18.2388L7.91481 16.905C7.87142 16.5238 7.64967 16.1857 7.31724 15.9941C6.98482 15.8025 6.58117 15.78 6.2303 15.9332L4.9995 16.4724C4.74457 16.5841 4.4469 16.5229 4.25681 16.3195C3.37117 15.3724 2.71192 14.2367 2.32868 12.998C2.24613 12.7312 2.3415 12.4413 2.56637 12.2756L3.65428 11.4741C3.96416 11.2465 4.14716 10.8849 4.14716 10.5004C4.14716 10.1159 3.96415 9.75432 3.65387 9.52639L2.56664 8.72624C2.34145 8.56052 2.24599 8.27031 2.32882 8.00326C2.71273 6.76563 3.37232 5.63119 4.25799 4.68529C4.44827 4.48206 4.74607 4.42102 5.00096 4.53299L6.22629 5.07126C6.57887 5.22599 6.9842 5.20262 7.31842 5.00735C7.6512 4.81433 7.87275 4.47494 7.91552 4.09294L8.06434 2.75796C8.09542 2.47918 8.30025 2.25097 8.57407 2.19007C9.20171 2.05049 9.84212 1.97632 10.5003 1.96875ZM10.5005 3.28116C10.1031 3.28584 9.70702 3.32013 9.3152 3.38364L9.21991 4.23866C9.13084 5.03447 8.66965 5.74089 7.97874 6.14165C7.2836 6.54777 6.43607 6.59665 5.69863 6.27302L4.91263 5.92774C4.41219 6.53514 4.01387 7.21993 3.73333 7.95522L4.43141 8.46894C5.07786 8.9439 5.45966 9.69824 5.45966 10.5004C5.45966 11.3025 5.07786 12.0569 4.43209 12.5313L3.73292 13.0464C4.01322 13.783 4.4116 14.4691 4.91238 15.0777L5.70436 14.7307C6.4377 14.4106 7.27946 14.4574 7.97271 14.857C8.66596 15.2566 9.12839 15.9615 9.21913 16.7585L9.3145 17.6194C10.0929 17.7518 10.8882 17.7518 11.6666 17.6194L11.762 16.7586C11.8502 15.9618 12.3121 15.2545 13.0061 14.8534C13.7002 14.4522 14.5437 14.4051 15.2783 14.7267L16.0697 15.0734C16.57 14.4658 16.9682 13.7808 17.2487 13.0454L16.5505 12.531C15.904 12.056 15.5223 11.3017 15.5223 10.4996C15.5223 9.69736 15.904 8.94302 16.5497 8.46866L17.247 7.9547C16.9665 7.21928 16.5681 6.53436 16.0676 5.92687L15.2831 6.27145C14.9635 6.41288 14.6177 6.48567 14.2685 6.48513C12.9825 6.48379 11.9032 5.51561 11.7628 4.23835L11.6676 3.38336C11.2777 3.31992 10.8856 3.28573 10.5005 3.28116ZM10.4894 7.21871C12.3016 7.21871 13.7706 8.68777 13.7706 10.5C13.7706 12.3121 12.3016 13.7812 10.4894 13.7812C8.67718 13.7812 7.20811 12.3121 7.20811 10.5C7.20811 8.68777 8.67718 7.21871 10.4894 7.21871ZM10.4894 8.53121C9.40209 8.53121 8.52061 9.41264 8.52061 10.5C8.52061 11.5873 9.40209 12.4688 10.4894 12.4688C11.5766 12.4688 12.4581 11.5873 12.4581 10.5C12.4581 9.41264 11.5766 8.53121 10.4894 8.53121Z" fill="#012C12"/>
</svg>
