<svg width="22" height="22" viewBox="0 0 22 22" fill="none" xmlns="http://www.w3.org/2000/svg">
<path d="M17.875 7.5625H4.125C3.76033 7.5625 3.41059 7.70737 3.15273 7.96523C2.89487 8.22309 2.75 8.57283 2.75 8.9375V17.1875C2.75 17.5522 2.89487 17.9019 3.15273 18.1598C3.41059 18.4176 3.76033 18.5625 4.125 18.5625H17.875C18.2397 18.5625 18.5894 18.4176 18.8473 18.1598C19.1051 17.9019 19.25 17.5522 19.25 17.1875V8.9375C19.25 8.57283 19.1051 8.22309 18.8473 7.96523C18.5894 7.70737 18.2397 7.5625 17.875 7.5625ZM17.875 17.1875H4.125V8.9375H17.875V17.1875ZM4.125 5.5C4.125 5.31766 4.19743 5.1428 4.32636 5.01386C4.4553 4.88493 4.63016 4.8125 4.8125 4.8125H17.1875C17.3698 4.8125 17.5447 4.88493 17.6736 5.01386C17.8026 5.1428 17.875 5.31766 17.875 5.5C17.875 5.68234 17.8026 5.8572 17.6736 5.98614C17.5447 6.11507 17.3698 6.1875 17.1875 6.1875H4.8125C4.63016 6.1875 4.4553 6.11507 4.32636 5.98614C4.19743 5.8572 4.125 5.68234 4.125 5.5ZM5.5 2.75C5.5 2.56766 5.57243 2.3928 5.70136 2.26386C5.8303 2.13493 6.00516 2.0625 6.1875 2.0625H15.8125C15.9948 2.0625 16.1697 2.13493 16.2986 2.26386C16.4276 2.3928 16.5 2.56766 16.5 2.75C16.5 2.93234 16.4276 3.1072 16.2986 3.23614C16.1697 3.36507 15.9948 3.4375 15.8125 3.4375H6.1875C6.00516 3.4375 5.8303 3.36507 5.70136 3.23614C5.57243 3.1072 5.5 2.93234 5.5 2.75Z" fill="#D3DFD4"/>
</svg>
