<svg width="20" height="19" viewBox="0 0 20 19" fill="none" xmlns="http://www.w3.org/2000/svg">
<path d="M9.10547 1.97858L7.39062 0.524657C6.98438 0.182296 6.49609 0 5.99219 0H1.17188C0.523438 0 0 0.595796 0 1.33387V17.118C0 17.8561 0.523438 18.4519 1.17188 18.4519H18.8281C19.4766 18.4519 20 17.8561 20 17.118V3.84155C20 3.10348 19.4766 2.50768 18.8281 2.50768H10.5039C10 2.50323 9.51172 2.32094 9.10547 1.97858Z" fill="#C1D2C2"/>
<path d="M1.17188 4.66797H18.8281C19.4766 4.66797 20 5.26377 20 6.00184V17.1174C20 17.8555 19.4766 18.4513 18.8281 18.4513H1.17188C0.523438 18.4513 0 17.8555 0 17.1174V6.00184C0 5.26377 0.523438 4.66797 1.17188 4.66797Z" fill="#D3DFD4"/>
</svg>
