<svg width="15" height="15" viewBox="0 0 15 15" fill="none" xmlns="http://www.w3.org/2000/svg">
<path d="M13.8467 6.76899C13.6679 5.48288 13.0713 4.29121 12.1487 3.37754C11.2261 2.46388 10.0286 1.87891 8.74083 1.71274C7.45303 1.54658 6.14633 1.80843 5.02199 2.45797C3.89766 3.10751 3.01808 4.1087 2.51874 5.30732M2.15332 2.38398V5.30732H5.07666" stroke="#5A7665" stroke-linecap="round" stroke-linejoin="round"/>
<path d="M2.15332 8.23047C2.33205 9.51658 2.92869 10.7082 3.85131 11.6219C4.77394 12.5356 5.97138 13.1205 7.25917 13.2867C8.54697 13.4529 9.85367 13.191 10.978 12.5415C12.1023 11.8919 12.9819 10.8908 13.4813 9.69214M13.8467 12.6155V9.69214H10.9233" stroke="#5A7665" stroke-linecap="round" stroke-linejoin="round"/>
</svg>
