<svg width="18" height="14" viewBox="0 0 18 14" fill="none" xmlns="http://www.w3.org/2000/svg">
<path fill-rule="evenodd" clip-rule="evenodd" d="M2.1 0C0.940205 0 0 0.940205 0 2.1V11.9C0 13.0598 0.940205 14 2.1 14H15.6129C16.7727 14 17.7129 13.0598 17.7129 11.9V2.1C17.7129 0.940205 16.7727 0 15.6129 0H2.1ZM1.4 2.1C1.4 1.7134 1.7134 1.4 2.1 1.4H4.2V12.6H2.1C1.7134 12.6 1.4 12.2866 1.4 11.9V2.1ZM5.6 12.6H15.6129C15.9995 12.6 16.3129 12.2866 16.3129 11.9V2.1C16.3129 1.7134 15.9995 1.4 15.6129 1.4H5.6V12.6Z" fill="#D3DFD4"/>
</svg>
