<svg width="15" height="15" viewBox="0 0 15 15" fill="none" xmlns="http://www.w3.org/2000/svg">
<path d="M7.5 5.625V8.125" stroke="#EE9300" stroke-linecap="round" stroke-linejoin="round"/>
<path d="M6.4768 2.24498L1.41055 10.7037C1.30611 10.8846 1.25085 11.0897 1.25025 11.2985C1.24965 11.5074 1.30374 11.7127 1.40715 11.8942C1.51055 12.0757 1.65966 12.2269 1.83964 12.3328C2.01963 12.4388 2.22421 12.4958 2.43305 12.4981H12.5668C12.7756 12.4957 12.98 12.4387 13.1599 12.3328C13.3398 12.2269 13.4889 12.0757 13.5923 11.8943C13.6957 11.713 13.7498 11.5077 13.7493 11.299C13.7487 11.0902 13.6936 10.8852 13.5893 10.7044L8.52306 2.24436C8.41646 2.06842 8.26631 1.92295 8.08709 1.82198C7.90786 1.72101 7.70563 1.66797 7.49993 1.66797C7.29423 1.66797 7.092 1.72101 6.91277 1.82198C6.73355 1.92295 6.5834 2.06842 6.4768 2.24436V2.24498Z" stroke="#EE9300" stroke-linecap="round" stroke-linejoin="round"/>
<path d="M7.5 10H7.50625" stroke="#EE9300" stroke-linecap="round" stroke-linejoin="round"/>
</svg>
