<svg width="20" height="23" viewBox="0 0 20 23" fill="none" xmlns="http://www.w3.org/2000/svg">
<path d="M0 3.00195C0 1.34402 1.34402 0 3.00195 0H10.9508L19.3249 7.25948V19.3349C19.3249 20.9928 17.9809 22.3369 16.323 22.3369H3.00195C1.34402 22.3369 0 20.9928 0 19.3349V3.00195Z" fill="#006F39"/>
<path d="M13.5959 7.15175H19.9975L11.3445 0V4.90028C11.3445 6.14373 12.3525 7.15175 13.5959 7.15175Z" fill="white" fill-opacity="0.5"/>
<path d="M4.09851 11.5927L5.19919 13.4529H5.24183L6.34784 11.5927H7.65107L5.98539 14.3217L7.68838 17.0508H6.36116L5.24183 15.1879H5.19919L4.07985 17.0508H2.75797L4.46629 14.3217L2.78995 11.5927H4.09851ZM8.2312 17.0508V11.5927H9.38518V16.0993H11.7251V17.0508H8.2312ZM15.3002 13.1624C15.2788 12.9474 15.1873 12.7804 15.0257 12.6614C14.864 12.5423 14.6445 12.4828 14.3674 12.4828C14.179 12.4828 14.02 12.5095 13.8903 12.5628C13.7606 12.6143 13.6611 12.6863 13.5918 12.7786C13.5243 12.871 13.4906 12.9759 13.4906 13.0931C13.487 13.1908 13.5074 13.2761 13.5519 13.349C13.5981 13.4218 13.6611 13.4849 13.7411 13.5382C13.821 13.5897 13.9134 13.635 14.0183 13.6741C14.1231 13.7114 14.235 13.7434 14.3541 13.7701L14.8444 13.8873C15.0825 13.9406 15.301 14.0117 15.5 14.1005C15.699 14.1894 15.8714 14.2986 16.0171 14.4283C16.1628 14.558 16.2756 14.7108 16.3555 14.8867C16.4373 15.0626 16.479 15.2643 16.4808 15.4917C16.479 15.8257 16.3937 16.1153 16.2249 16.3605C16.0579 16.6039 15.8163 16.7932 15.5 16.9282C15.1856 17.0614 14.8062 17.1281 14.362 17.1281C13.9214 17.1281 13.5376 17.0606 13.2107 16.9255C12.8856 16.7905 12.6315 16.5906 12.4485 16.3259C12.2673 16.0594 12.1722 15.7298 12.1634 15.3371H13.28C13.2925 15.5201 13.3449 15.6729 13.4373 15.7955C13.5314 15.9163 13.6567 16.0078 13.813 16.07C13.9712 16.1304 14.1497 16.1606 14.3487 16.1606C14.5442 16.1606 14.7138 16.1322 14.8578 16.0754C15.0034 16.0185 15.1163 15.9394 15.1962 15.8382C15.2762 15.7369 15.3161 15.6205 15.3161 15.489C15.3161 15.3664 15.2797 15.2634 15.2069 15.1799C15.1358 15.0964 15.031 15.0253 14.8924 14.9667C14.7556 14.9081 14.5877 14.8548 14.3887 14.8068L13.7944 14.6575C13.3342 14.5456 12.9709 14.3706 12.7044 14.1325C12.4379 13.8944 12.3055 13.5737 12.3073 13.1704C12.3055 12.8399 12.3934 12.5512 12.5711 12.3043C12.7506 12.0573 12.9966 11.8645 13.3093 11.7259C13.622 11.5874 13.9774 11.5181 14.3754 11.5181C14.7805 11.5181 15.134 11.5874 15.4361 11.7259C15.7399 11.8645 15.9762 12.0573 16.145 12.3043C16.3138 12.5512 16.4008 12.8373 16.4062 13.1624H15.3002Z" fill="white"/>
</svg>
