<svg width="15" height="15" viewBox="0 0 15 15" fill="none" xmlns="http://www.w3.org/2000/svg">
<path d="M14.4765 13.221L11.8136 10.6191C12.8938 9.3268 13.4244 7.6783 13.2957 6.01449C13.167 4.35069 12.3889 2.79883 11.1222 1.67979C9.85546 0.56075 8.19709 -0.0398923 6.48993 0.00205835C4.78278 0.044009 3.1574 0.725344 1.94988 1.90519C0.742361 3.08503 0.0450415 4.67314 0.00210664 6.34116C-0.0408282 8.00918 0.573905 9.62954 1.7192 10.8672C2.8645 12.1049 4.45276 12.8652 6.1556 12.9909C7.85844 13.1167 9.54562 12.5982 10.8683 11.5428L13.5312 14.1447C13.5931 14.2057 13.6667 14.2541 13.7478 14.2871C13.829 14.3201 13.916 14.3371 14.0039 14.3371C14.0918 14.3371 14.1788 14.3201 14.2599 14.2871C14.341 14.2541 14.4147 14.2057 14.4765 14.1447C14.5389 14.0842 14.5885 14.0123 14.6223 13.933C14.6561 13.8538 14.6735 13.7687 14.6735 13.6829C14.6735 13.597 14.6561 13.512 14.6223 13.4327C14.5885 13.3534 14.5389 13.2815 14.4765 13.221ZM6.68083 11.7314C5.62748 11.7314 4.59778 11.4263 3.72195 10.8545C2.84612 10.2827 2.16349 9.46994 1.76039 8.51908C1.35729 7.56822 1.25182 6.52191 1.45732 5.51248C1.66282 4.50305 2.17006 3.57583 2.91489 2.84807C3.65972 2.12031 4.6087 1.6247 5.64181 1.42391C6.67493 1.22313 7.74578 1.32618 8.71895 1.72004C9.69212 2.1139 10.5239 2.78088 11.1091 3.63663C11.6943 4.49239 12.0067 5.49848 12.0067 6.52769C12.0067 7.90781 11.4456 9.23141 10.4468 10.2073C9.44799 11.1832 8.09334 11.7314 6.68083 11.7314Z" fill="#012C12"/>
<path d="M8.67769 5.87695H4.68331C4.50675 5.87695 4.33742 5.94548 4.21257 6.06747C4.08772 6.18946 4.01758 6.35491 4.01758 6.52742C4.01758 6.69994 4.08772 6.86539 4.21257 6.98738C4.33742 7.10936 4.50675 7.17789 4.68331 7.17789H8.67769C8.85426 7.17789 9.02359 7.10936 9.14844 6.98738C9.27329 6.86539 9.34342 6.69994 9.34342 6.52742C9.34342 6.35491 9.27329 6.18946 9.14844 6.06747C9.02359 5.94548 8.85426 5.87695 8.67769 5.87695Z" fill="#012C12"/>
</svg>
