<svg width="16" height="15" viewBox="0 0 16 15" fill="none" xmlns="http://www.w3.org/2000/svg">
<path d="M8.70061 5.75607H7.16214V4.25287C7.16214 3.90833 6.87817 3.63086 6.52554 3.63086C6.17291 3.63086 5.88893 3.90833 5.88893 4.25287V5.75607H4.35047C3.99784 5.75607 3.71387 6.03353 3.71387 6.37808C3.71387 6.72263 3.99784 7.00009 4.35047 7.00009H5.88893V8.50329C5.88893 8.84783 6.17291 9.1253 6.52554 9.1253C6.87817 9.1253 7.16214 8.84783 7.16214 8.50329V7.00009H8.70061C9.05324 7.00009 9.33721 6.72263 9.33721 6.37808C9.33721 6.03353 9.05012 5.75607 8.70061 5.75607Z" fill="#012C12"/>
<path d="M6.52832 11.5042C3.62927 11.5042 1.27945 9.21127 1.27945 6.37867C1.27945 3.54608 3.62927 1.25317 6.52832 1.25317C9.42737 1.25317 11.7741 3.54913 11.7741 6.37867C11.7741 9.20822 9.42425 11.5042 6.52832 11.5042ZM15.1038 13.8825L11.5681 10.4279C12.4949 9.32713 13.0535 7.91541 13.0535 6.37867C13.0535 2.85699 10.1326 0 6.5252 0C2.91777 0 0 2.85699 0 6.37867C0 9.90036 2.92089 12.7573 6.52832 12.7573C8.10111 12.7573 9.54284 12.2146 10.6694 11.309L14.205 14.7636C14.3673 14.9252 14.8635 15.0045 15.1069 14.7636C15.3534 14.5197 15.3534 14.1264 15.1038 13.8825Z" fill="#012C12"/>
</svg>
